<svg xmlns="http://www.w3.org/2000/svg" viewBox="0 0 570 600" width="570" height="600"
     font-family="Times New Roman, serif" font-size="20">
  <title>Рис. 1. Самоустановка генератора в ВППТК</title>
  <desc>Сплошная линия — генератор опирается на три шарика (центр Oг);
        штриховая — на два шарика и опору генератора (центр O'г).
        Oв — центр зубчатого венца жёсткого колеса, ℓ — смещение центра генератора.</desc>

  <defs>
    <marker id="arr" viewBox="0 0 10 10" refX="9" refY="5" markerWidth="9" markerHeight="9"
            orient="auto-start-reverse" markerUnits="userSpaceOnUse">
      <path d="M0,1 L10,5 L0,9 z" fill="#000"/>
    </marker>
    <marker id="arrS" viewBox="0 0 10 10" refX="9" refY="5" markerWidth="12" markerHeight="12"
            orient="auto" markerUnits="userSpaceOnUse">
      <path d="M0,1 L10,5 L0,9 z" fill="#000"/>
    </marker>
  </defs>

  <!-- ===== Осевые линии ===== -->
  <g stroke="#000" stroke-width="0.8" fill="none">
    <!-- через Oв -->
    <line x1="275" y1="95"  x2="275" y2="470" stroke-dasharray="22 4 3 4"/>
    <line x1="110" y1="262" x2="470" y2="262" stroke-dasharray="22 4 3 4"/>
    <!-- через O'г -->
    <line x1="318" y1="40"  x2="318" y2="440"/>
    <line x1="60"  y1="248" x2="545" y2="248" stroke-dasharray="22 6"/>
    <!-- через Oг -->
    <line x1="135" y1="305" x2="420" y2="305"/>
    <line x1="262" y1="40"  x2="262" y2="250"/>
  </g>

  <!-- ===== Втулка (неподвижна, центр Oв) ===== -->
  <circle cx="275" cy="262" r="140" fill="none" stroke="#000" stroke-width="2.6"/>

  <!-- ===== Генератор: положение 1 (сплошная, центр Oг) ===== -->
  <circle cx="277" cy="305" r="186" fill="none" stroke="#000" stroke-width="2.6"/>

  <!-- ===== Генератор: положение 2 (штриховая, центр O'г) ===== -->
  <circle cx="318" cy="248" r="190" fill="none" stroke="#000" stroke-width="2.2"
          stroke-dasharray="18 7"/>

  <!-- ===== Шарики, положение 1 (сплошные) ===== -->
  <g fill="none" stroke="#000" stroke-width="2.2">
    <circle cx="84"  cy="180" r="44"/>   <!-- шарик 3 -->
    <circle cx="465" cy="438" r="44"/>   <!-- шарик 1 -->
    <circle cx="229" cy="530" r="44"/>   <!-- шарик 2 -->
  </g>

  <!-- ===== Шарики, положение 2 (штриховые) ===== -->
  <g fill="none" stroke="#000" stroke-width="1.8" stroke-dasharray="8 5">
    <circle cx="179" cy="60"  r="44"/>   <!-- шарик 1' -->
    <circle cx="376" cy="475" r="44"/>   <!-- шарик 2' -->
  </g>

  <!-- метки центров шариков -->
  <g stroke="#000" stroke-width="1.5">
    <line x1="78" y1="172" x2="90" y2="188"/>
    <line x1="458" y1="444" x2="472" y2="432"/>
    <line x1="221" y1="532" x2="237" y2="528"/>
    <line x1="171" y1="66" x2="187" y2="54"/>
    <line x1="369" y1="480" x2="383" y2="470"/>
  </g>

  <!-- ===== Реакции, положение 1 ===== -->
  <g stroke="#000" stroke-width="1.6" fill="none">
    <!-- R3 -->
    <line x1="17" y1="136" x2="171" y2="237" marker-end="url(#arrS)"/>
    <!-- R1 -->
    <line x1="465" y1="438" x2="380" y2="377" marker-end="url(#arrS)"/>
    <!-- R2 -->
    <line x1="229" y1="530" x2="249" y2="433" marker-end="url(#arrS)"/>
  </g>

  <!-- ===== Реакции, положение 2 (штриховые) ===== -->
  <g stroke="#000" stroke-width="1.6" fill="none" stroke-dasharray="9 5">
    <!-- R'1 -->
    <line x1="179" y1="60" x2="264" y2="176" marker-end="url(#arrS)"/>
    <!-- R'2 -->
    <line x1="376" y1="475" x2="351" y2="379" marker-end="url(#arrS)"/>
  </g>

  <!-- ===== R0 — нагрузка на подшипники генератора ===== -->
  <line x1="277" y1="305" x2="84" y2="400" stroke="#000" stroke-width="1.4"
        stroke-dasharray="14 4 3 4" marker-end="url(#arrS)"/>
  <circle cx="163" cy="361" r="3.5" fill="#000"/>

  <!-- ===== Направление вращения ===== -->
  <g stroke="#000" stroke-width="2.6" fill="none">
    <path d="M116,212 A186,186 0 0 0 102,241" marker-end="url(#arrS)"/>
    <path d="M227,394 A140,140 0 0 0 251,400" marker-end="url(#arrS)"/>
  </g>

  <!-- ===== Центры и смещение ℓ ===== -->
  <g stroke="#000" stroke-width="1.4">
    <line x1="275" y1="262" x2="318" y2="248"/>   <!-- Oв–O'г -->
    <line x1="275" y1="262" x2="277" y2="305"/>   <!-- Oв–Oг  -->
  </g>
  <g fill="#000">
    <circle cx="275" cy="262" r="3.5"/>
    <circle cx="318" cy="248" r="3.5"/>
    <circle cx="277" cy="305" r="3.5"/>
  </g>
  <g stroke="#000" stroke-width="1.2" fill="none">
    <line x1="340" y1="280" x2="298" y2="256" marker-end="url(#arr)"/>
    <line x1="345" y1="296" x2="278" y2="296" marker-end="url(#arr)"/>
  </g>

  <!-- ===== Подписи (без tspan/dy, индексы — отдельные элементы) ===== -->
  <g fill="#000" font-family="Times New Roman, Liberation Serif, DejaVu Serif, serif">
    <!-- Oв -->
    <text x="235" y="256" font-size="20">O</text>
    <text x="250" y="262" font-size="14">в</text>
    <!-- O'г -->
    <text x="322" y="238" font-size="20">O</text>
    <text x="337" y="229" font-size="14">'</text>
    <text x="337" y="244" font-size="14">г</text>
    <!-- Oг -->
    <text x="243" y="338" font-size="20">O</text>
    <text x="258" y="344" font-size="14">г</text>
    <!-- ℓ -->
    <text x="340" y="292" font-size="20" font-style="italic">ℓ</text>

    <!-- R3 -->
    <text x="160" y="218" font-size="20">R</text>
    <text x="174" y="224" font-size="14">3</text>
    <!-- R1 -->
    <text x="395" y="352" font-size="20">R</text>
    <text x="409" y="358" font-size="14">1</text>
    <!-- R2 -->
    <text x="258" y="470" font-size="20">R</text>
    <text x="272" y="476" font-size="14">2</text>
    <!-- R'1 -->
    <text x="282" y="190" font-size="20">R</text>
    <text x="296" y="181" font-size="14">'</text>
    <text x="296" y="196" font-size="14">1</text>
    <!-- R'2 -->
    <text x="285" y="355" font-size="20">R</text>
    <text x="299" y="346" font-size="14">'</text>
    <text x="299" y="361" font-size="14">2</text>
    <!-- R0 -->
    <text x="80"  y="445" font-size="20">R</text>
    <text x="94"  y="451" font-size="14">0</text>
  </g>

  <!-- черта над векторами R (вместо text-decoration) -->
  <g stroke="#000" stroke-width="1.2">
    <line x1="160" y1="202" x2="173" y2="202"/>
    <line x1="395" y1="336" x2="408" y2="336"/>
    <line x1="258" y1="454" x2="271" y2="454"/>
    <line x1="282" y1="174" x2="295" y2="174"/>
    <line x1="285" y1="339" x2="298" y2="339"/>
    <line x1="80"  y1="429" x2="93"  y2="429"/>
  </g>
</svg>
